<svg version="1.1" id="Layer_1" xmlns="http://www.w3.org/2000/svg" xmlns:xlink="http://www.w3.org/1999/xlink" x="0px" y="0px"
	 height="100%" width="100%" viewBox="0 0 522 522" enable-background="new 0 0 522 522" xml:space="preserve">
<path fill="#F5F5FA" opacity="1.000000" stroke="none"
	d="
M523.000000,234.000000
	C523.000000,252.354233 523.000000,270.708466 522.635254,289.222290
	C521.847900,290.221558 521.179321,291.022614 521.040649,291.906769
	C519.608521,301.043549 518.912720,310.349762 516.764709,319.309814
	C511.172119,342.638702 503.022980,365.013062 491.497467,386.216461
	C480.012726,407.344818 466.045441,426.598083 449.427734,443.787384
	C440.242889,453.288147 429.822510,461.679657 419.445709,469.925110
	C398.360291,486.679749 374.797638,499.104797 349.395782,507.969055
	C330.758301,514.472839 311.710144,519.317627 291.965424,521.078979
	C291.258789,521.142029 290.652863,522.334106 290.000000,523.000000
	C271.645782,523.000000 253.291550,523.000000 234.777267,522.635010
	C233.777740,521.847595 232.976807,521.179016 232.092819,521.040588
	C222.959213,519.610229 213.655014,518.919983 204.699539,516.769287
	C181.383270,511.169952 159.007355,503.047028 137.816711,491.516235
	C116.101540,479.700043 96.382294,465.272034 78.819084,448.054840
	C69.848137,439.260651 61.903877,429.342865 54.082329,419.468170
	C37.349457,398.342926 24.907846,374.781158 16.022194,349.367004
	C9.507178,330.733185 4.687337,311.688171 2.920911,291.949951
	C2.858115,291.248260 1.665856,290.647705 1.000000,290.000000
	C1.000000,271.645782 1.000000,253.291550 1.364824,234.777542
	C2.152158,233.778503 2.820786,232.977798 2.959219,232.094025
	C4.389896,222.960480 5.078464,213.655670 7.231673,204.701050
	C12.837987,181.385849 20.950315,159.004745 32.485603,137.813644
	C44.306988,116.096985 58.735817,96.374977 75.960670,78.813278
	C84.757553,69.844376 94.664146,61.887054 104.544395,54.073437
	C125.676514,37.361481 149.215637,24.887909 174.637436,16.018583
	C193.274750,9.516275 212.314178,4.689703 232.050003,2.920776
	C232.751740,2.857879 233.352295,1.665804 234.000000,1.000000
	C252.354233,1.000000 270.708466,1.000000 289.222351,1.364502
	C290.220886,2.151794 291.032410,2.873799 291.902557,2.953177
	C309.190674,4.530249 325.944092,8.525173 342.443268,13.799137
	C361.052979,19.747738 378.517731,28.145632 395.452240,37.805866
	C414.683350,48.776199 431.633606,62.727192 447.340637,78.105064
	C455.601318,86.192619 462.803619,95.432358 469.959900,104.562477
	C486.569183,125.752899 498.859131,149.386780 507.955719,174.656830
	C514.641724,193.230423 519.181519,212.347427 521.078491,232.050720
	C521.146362,232.755600 522.334167,233.352676 523.000000,234.000000
M456.965027,346.350311
	C466.222992,324.846802 472.162445,302.353241 473.763306,279.102448
	C475.276367,257.126801 474.191345,235.081085 468.822784,213.472702
	C463.718872,192.929596 456.444366,173.198608 445.452484,155.112167
	C433.915863,136.129364 420.562500,118.574066 403.575195,103.843117
	C390.390289,92.409531 376.433655,82.220909 361.083801,74.091476
	C335.434967,60.507557 307.923004,52.400284 279.057190,50.222889
	C258.545288,48.675632 237.865021,49.568245 217.653549,54.186272
	C194.682144,59.434910 172.880234,67.844681 152.641815,80.043282
	C130.617569,93.318291 111.437485,110.004349 95.542664,130.131424
	C79.072250,150.987350 66.851868,174.278320 59.021175,199.780731
	C54.151077,215.641296 51.016048,231.874664 50.170441,248.386520
	C49.605259,259.422485 49.892052,270.633789 51.196747,281.600189
	C52.796883,295.049835 54.821190,308.618561 58.495602,321.617523
	C66.795547,350.980194 81.033318,377.573669 101.245132,400.434723
	C115.579865,416.648376 131.767944,430.909424 150.504028,442.380676
	C180.449310,460.714752 212.778854,471.259735 247.542252,473.770569
	C264.407196,474.988647 281.398315,474.318878 298.279449,471.170837
	C321.740295,466.795685 343.990234,459.399963 364.741638,447.661255
	C384.823547,436.301270 402.922455,422.511932 418.469208,405.227600
	C434.215210,387.721741 447.073547,368.528351 456.965027,346.350311
z"/>
<path fill="#000000" opacity="1.000000" stroke="none"
	d="
M523.000000,233.531342
	C522.334167,233.352676 521.146362,232.755600 521.078491,232.050720
	C519.181519,212.347427 514.641724,193.230423 507.955719,174.656830
	C498.859131,149.386780 486.569183,125.752899 469.959900,104.562477
	C462.803619,95.432358 455.601318,86.192619 447.340637,78.105064
	C431.633606,62.727192 414.683350,48.776199 395.452240,37.805866
	C378.517731,28.145632 361.052979,19.747738 342.443268,13.799137
	C325.944092,8.525173 309.190674,4.530249 291.902557,2.953177
	C291.032410,2.873799 290.220886,2.151794 289.691040,1.364502
	C367.593719,1.000000 445.187408,1.000000 523.000000,1.000000
	C523.000000,78.354088 523.000000,155.708389 523.000000,233.531342
z"/>
<path fill="#000000" opacity="1.000000" stroke="none"
	d="
M233.531342,1.000000
	C233.352295,1.665804 232.751740,2.857879 232.050003,2.920776
	C212.314178,4.689703 193.274750,9.516275 174.637436,16.018583
	C149.215637,24.887909 125.676514,37.361481 104.544395,54.073437
	C94.664146,61.887054 84.757553,69.844376 75.960670,78.813278
	C58.735817,96.374977 44.306988,116.096985 32.485603,137.813644
	C20.950315,159.004745 12.837987,181.385849 7.231673,204.701050
	C5.078464,213.655670 4.389896,222.960480 2.959219,232.094025
	C2.820786,232.977798 2.152158,233.778503 1.364824,234.308884
	C1.000000,156.406281 1.000000,78.812576 1.000000,1.000000
	C78.354088,1.000000 155.708389,1.000000 233.531342,1.000000
z"/>
<path fill="#000000" opacity="1.000000" stroke="none"
	d="
M1.000000,290.468658
	C1.665856,290.647705 2.858115,291.248260 2.920911,291.949951
	C4.687337,311.688171 9.507178,330.733185 16.022194,349.367004
	C24.907846,374.781158 37.349457,398.342926 54.082329,419.468170
	C61.903877,429.342865 69.848137,439.260651 78.819084,448.054840
	C96.382294,465.272034 116.101540,479.700043 137.816711,491.516235
	C159.007355,503.047028 181.383270,511.169952 204.699539,516.769287
	C213.655014,518.919983 222.959213,519.610229 232.092819,521.040588
	C232.976807,521.179016 233.777740,521.847595 234.308609,522.635010
	C156.406296,523.000000 78.812592,523.000000 1.000000,523.000000
	C1.000000,445.645905 1.000000,368.291626 1.000000,290.468658
z"/>
<path fill="#000000" opacity="1.000000" stroke="none"
	d="
M290.468628,523.000000
	C290.652863,522.334106 291.258789,521.142029 291.965424,521.078979
	C311.710144,519.317627 330.758301,514.472839 349.395782,507.969055
	C374.797638,499.104797 398.360291,486.679749 419.445709,469.925110
	C429.822510,461.679657 440.242889,453.288147 449.427734,443.787384
	C466.045441,426.598083 480.012726,407.344818 491.497467,386.216461
	C503.022980,365.013062 511.172119,342.638702 516.764709,319.309814
	C518.912720,310.349762 519.608521,301.043549 521.040649,291.906769
	C521.179321,291.022614 521.847900,290.221558 522.635254,289.690948
	C523.000000,367.593719 523.000000,445.187408 523.000000,523.000000
	C445.645905,523.000000 368.291626,523.000000 290.468628,523.000000
z"/>
<path fill="#000000" opacity="1.000000" stroke="none"
	d="
M456.735657,346.673523
	C447.073547,368.528351 434.215210,387.721741 418.469208,405.227600
	C402.922455,422.511932 384.823547,436.301270 364.741638,447.661255
	C343.990234,459.399963 321.740295,466.795685 298.279449,471.170837
	C281.398315,474.318878 264.407196,474.988647 247.542252,473.770569
	C212.778854,471.259735 180.449310,460.714752 150.504028,442.380676
	C131.767944,430.909424 115.579865,416.648376 101.245132,400.434723
	C81.033318,377.573669 66.795547,350.980194 58.495602,321.617523
	C54.821190,308.618561 52.796883,295.049835 51.196747,281.600189
	C49.892052,270.633789 49.605259,259.422485 50.170441,248.386520
	C51.016048,231.874664 54.151077,215.641296 59.021175,199.780731
	C66.851868,174.278320 79.072250,150.987350 95.542664,130.131424
	C111.437485,110.004349 130.617569,93.318291 152.641815,80.043282
	C172.880234,67.844681 194.682144,59.434910 217.653549,54.186272
	C237.865021,49.568245 258.545288,48.675632 279.057190,50.222889
	C307.923004,52.400284 335.434967,60.507557 361.083801,74.091476
	C376.433655,82.220909 390.390289,92.409531 403.575195,103.843117
	C420.562500,118.574066 433.915863,136.129364 445.452484,155.112167
	C456.444366,173.198608 463.718872,192.929596 468.822784,213.472702
	C474.191345,235.081085 475.276367,257.126801 473.763306,279.102448
	C472.162445,302.353241 466.222992,324.846802 456.735657,346.673523
M392.997498,175.496674
	C383.403748,165.814819 372.092041,158.746323 359.686859,153.227982
	C336.506714,142.916489 312.202057,140.893692 287.900482,146.289185
	C253.567276,153.911942 227.378021,173.760086 210.719620,204.930191
	C198.107101,228.529953 193.958755,253.785965 198.946808,280.388489
	C204.842972,311.834137 220.822235,336.779572 246.808228,355.226715
	C264.002869,367.432983 283.451813,374.304657 304.358307,375.819916
	C323.373871,377.198120 341.810669,374.014740 359.595795,366.298218
	C378.164246,358.241760 393.537628,346.311768 405.657867,330.485809
	C414.657471,318.734650 421.052551,305.447784 425.179565,290.973663
	C430.113861,273.668121 430.696808,256.086243 427.625397,238.845169
	C423.278534,214.444366 412.218353,192.957977 392.997498,175.496674
M150.499939,166.000305
	C140.736526,166.000305 130.973114,166.000305 121.288818,166.000305
	C121.288818,229.646057 121.288818,292.708710 121.288818,355.707581
	C138.647110,355.707581 155.716385,355.707581 172.713470,355.707581
	C172.713470,292.352753 172.713470,229.289810 172.713470,166.000305
	C165.452698,166.000305 158.476288,166.000305 150.499939,166.000305
z"/>
<path fill="#F5F5FA" opacity="1.000000" stroke="none"
	d="
M393.247864,175.747787
	C412.218353,192.957977 423.278534,214.444366 427.625397,238.845169
	C430.696808,256.086243 430.113861,273.668121 425.179565,290.973663
	C421.052551,305.447784 414.657471,318.734650 405.657867,330.485809
	C393.537628,346.311768 378.164246,358.241760 359.595795,366.298218
	C341.810669,374.014740 323.373871,377.198120 304.358307,375.819916
	C283.451813,374.304657 264.002869,367.432983 246.808228,355.226715
	C220.822235,336.779572 204.842972,311.834137 198.946808,280.388489
	C193.958755,253.785965 198.107101,228.529953 210.719620,204.930191
	C227.378021,173.760086 253.567276,153.911942 287.900482,146.289185
	C312.202057,140.893692 336.506714,142.916489 359.686859,153.227982
	C372.092041,158.746323 383.403748,165.814819 393.247864,175.747787
M295.674377,324.998871
	C305.332123,327.363342 315.040253,327.915009 324.859436,326.014923
	C342.970642,322.510254 357.606415,313.708282 368.254578,298.386261
	C377.877991,284.538788 381.938141,269.507935 380.100037,252.629044
	C378.576752,238.641052 373.487305,226.216095 364.244385,215.942230
	C348.671631,198.632599 329.330902,190.166870 305.558441,192.932526
	C285.480408,195.268372 269.751190,204.855133 258.108978,220.938217
	C249.109970,233.369888 245.255402,247.615707 245.971710,263.067322
	C246.713318,279.064819 252.544327,292.849213 263.199799,304.742371
	C271.887756,314.439453 282.547241,320.946198 295.674377,324.998871
z"/>
<path fill="#F5F5FA" opacity="1.000000" stroke="none"
	d="
M150.999908,166.000305
	C158.476288,166.000305 165.452698,166.000305 172.713470,166.000305
	C172.713470,229.289810 172.713470,292.352753 172.713470,355.707581
	C155.716385,355.707581 138.647110,355.707581 121.288818,355.707581
	C121.288818,292.708710 121.288818,229.646057 121.288818,166.000305
	C130.973114,166.000305 140.736526,166.000305 150.999908,166.000305
z"/>
<path fill="#000000" opacity="1.000000" stroke="none"
	d="
M295.251404,324.984711
	C282.547241,320.946198 271.887756,314.439453 263.199799,304.742371
	C252.544327,292.849213 246.713318,279.064819 245.971710,263.067322
	C245.255402,247.615707 249.109970,233.369888 258.108978,220.938217
	C269.751190,204.855133 285.480408,195.268372 305.558441,192.932526
	C329.330902,190.166870 348.671631,198.632599 364.244385,215.942230
	C373.487305,226.216095 378.576752,238.641052 380.100037,252.629044
	C381.938141,269.507935 377.877991,284.538788 368.254578,298.386261
	C357.606415,313.708282 342.970642,322.510254 324.859436,326.014923
	C315.040253,327.915009 305.332123,327.363342 295.251404,324.984711
z"/>
</svg>
