<svg version="1.1" id="Layer_1" xmlns="http://www.w3.org/2000/svg" xmlns:xlink="http://www.w3.org/1999/xlink" x="0px" y="0px"
	 width="100%" viewBox="0 0 522 522" enable-background="new 0 0 522 522" xml:space="preserve">
<path fill="#0A083B" opacity="1.000000" stroke="none"
	d="
M523.000000,234.000000
	C523.000000,252.354233 523.000000,270.708466 522.697205,289.742432
	C521.938171,291.633575 521.226746,292.811523 521.062927,294.061249
	C516.776367,326.754669 507.103424,357.664795 491.226288,386.658813
	C473.883392,418.329376 451.273285,445.465118 422.787384,467.662415
	C386.268677,496.119110 345.083344,513.635254 299.256073,520.298584
	C296.106354,520.756531 293.082428,522.079407 290.000000,523.000000
	C271.645782,523.000000 253.291550,523.000000 234.257568,522.697266
	C232.366287,521.938538 231.188171,521.227661 229.938354,521.063782
	C197.245117,516.776917 166.334473,507.106995 137.340103,491.228699
	C105.669884,473.885071 78.532509,451.277954 56.336647,422.790771
	C27.881626,386.270294 10.365081,345.084198 3.701081,299.256470
	C3.243057,296.106659 1.920504,293.082550 1.000001,290.000000
	C1.000000,271.645782 1.000000,253.291550 1.302750,234.257568
	C2.061505,232.366287 2.772440,231.188156 2.936295,229.938324
	C7.222438,197.244736 16.892288,166.333740 32.771812,137.339935
	C50.116482,105.671005 72.722771,78.533844 101.210327,56.337547
	C137.731110,27.882107 178.916031,10.365704 224.743683,3.702283
	C227.893494,3.244297 230.917496,1.920921 234.000000,1.000000
	C252.354233,1.000000 270.708466,1.000000 289.742188,1.302631
	C291.964539,2.087827 293.475616,2.801265 295.054932,3.018472
	C320.434692,6.508960 344.940887,13.130209 368.300537,23.698429
	C399.737274,37.920853 427.347229,57.422379 451.228271,82.505478
	C469.319214,101.506989 484.160492,122.640190 495.818329,145.949646
	C508.174927,170.656219 516.401733,196.797424 520.218079,224.257553
	C520.678467,227.569916 522.050537,230.755600 523.000000,234.000000
M456.836060,346.307922
	C466.385132,324.604401 472.131439,301.848297 473.770935,278.282318
	C476.447205,239.813934 469.844330,202.838654 452.496765,168.248032
	C440.168182,143.665100 423.996429,121.869026 403.183472,103.525002
	C378.635498,81.889008 350.833221,66.571960 319.408386,57.596348
	C292.110809,49.799564 264.318939,47.964363 236.285660,51.244114
	C207.508545,54.610882 180.532684,63.925915 155.408035,78.425095
	C138.727417,88.051292 123.512131,99.737526 110.197556,113.552376
	C93.125992,131.265381 79.211319,151.281387 68.971878,173.841354
	C58.242973,197.479721 51.780838,222.182159 50.179363,247.977142
	C48.653767,272.550018 51.113174,296.847412 58.105900,320.609039
	C68.524170,356.010864 86.496284,387.122345 112.797012,412.820648
	C124.475945,424.232056 137.933365,434.234314 151.815994,442.902283
	C193.576477,468.976440 239.540894,478.683746 288.215118,472.616486
	C339.815094,466.184509 383.489014,443.422211 418.749023,404.850616
	C434.520630,387.597748 447.147614,368.387726 456.836060,346.307922
z"/>
<path fill="#000000" opacity="1.000000" stroke="none"
	d="
M523.000000,233.531342
	C522.050537,230.755600 520.678467,227.569916 520.218079,224.257553
	C516.401733,196.797424 508.174927,170.656219 495.818329,145.949646
	C484.160492,122.640190 469.319214,101.506989 451.228271,82.505478
	C427.347229,57.422379 399.737274,37.920853 368.300537,23.698429
	C344.940887,13.130209 320.434692,6.508960 295.054932,3.018472
	C293.475616,2.801265 291.964539,2.087827 290.210846,1.302631
	C367.593719,1.000000 445.187408,1.000000 523.000000,1.000000
	C523.000000,78.354088 523.000000,155.708389 523.000000,233.531342
z"/>
<path fill="#000000" opacity="1.000000" stroke="none"
	d="
M233.531342,1.000000
	C230.917496,1.920921 227.893494,3.244297 224.743683,3.702283
	C178.916031,10.365704 137.731110,27.882107 101.210327,56.337547
	C72.722771,78.533844 50.116482,105.671005 32.771812,137.339935
	C16.892288,166.333740 7.222438,197.244736 2.936295,229.938324
	C2.772440,231.188156 2.061505,232.366287 1.302750,233.788910
	C1.000000,156.406281 1.000000,78.812576 1.000000,1.000000
	C78.354088,1.000000 155.708389,1.000000 233.531342,1.000000
z"/>
<path fill="#000000" opacity="1.000000" stroke="none"
	d="
M1.000001,290.468658
	C1.920504,293.082550 3.243057,296.106659 3.701081,299.256470
	C10.365081,345.084198 27.881626,386.270294 56.336647,422.790771
	C78.532509,451.277954 105.669884,473.885071 137.340103,491.228699
	C166.334473,507.106995 197.245117,516.776917 229.938354,521.063782
	C231.188171,521.227661 232.366287,521.938538 233.788910,522.697266
	C156.406296,523.000000 78.812592,523.000000 1.000000,523.000000
	C1.000000,445.645905 1.000000,368.291626 1.000001,290.468658
z"/>
<path fill="#000000" opacity="1.000000" stroke="none"
	d="
M290.468658,523.000000
	C293.082428,522.079407 296.106354,520.756531 299.256073,520.298584
	C345.083344,513.635254 386.268677,496.119110 422.787384,467.662415
	C451.273285,445.465118 473.883392,418.329376 491.226288,386.658813
	C507.103424,357.664795 516.776367,326.754669 521.062927,294.061249
	C521.226746,292.811523 521.938171,291.633575 522.697205,290.211121
	C523.000000,367.593719 523.000000,445.187408 523.000000,523.000000
	C445.645905,523.000000 368.291626,523.000000 290.468658,523.000000
z"/>
<path fill="#000000" opacity="1.000000" stroke="none"
	d="
M456.669006,346.651306
	C447.147614,368.387726 434.520630,387.597748 418.749023,404.850616
	C383.489014,443.422211 339.815094,466.184509 288.215118,472.616486
	C239.540894,478.683746 193.576477,468.976440 151.815994,442.902283
	C137.933365,434.234314 124.475945,424.232056 112.797012,412.820648
	C86.496284,387.122345 68.524170,356.010864 58.105900,320.609039
	C51.113174,296.847412 48.653767,272.550018 50.179363,247.977142
	C51.780838,222.182159 58.242973,197.479721 68.971878,173.841354
	C79.211319,151.281387 93.125992,131.265381 110.197556,113.552376
	C123.512131,99.737526 138.727417,88.051292 155.408035,78.425095
	C180.532684,63.925915 207.508545,54.610882 236.285660,51.244114
	C264.318939,47.964363 292.110809,49.799564 319.408386,57.596348
	C350.833221,66.571960 378.635498,81.889008 403.183472,103.525002
	C423.996429,121.869026 440.168182,143.665100 452.496765,168.248032
	C469.844330,202.838654 476.447205,239.813934 473.770935,278.282318
	C472.131439,301.848297 466.385132,324.604401 456.669006,346.651306
M392.998077,175.498932
	C366.771667,150.277466 334.971069,140.716995 299.498383,144.449432
	C268.217590,147.740799 242.184875,162.230164 222.543579,187.101105
	C200.944199,214.451508 192.913254,245.597961 198.839371,279.924835
	C203.368729,306.161072 215.505798,328.519012 235.685867,346.204254
	C263.697235,370.752655 296.156494,380.219635 332.909912,374.210175
	C361.346252,369.560638 384.684296,355.773590 402.967499,333.539215
	C424.098053,307.842072 432.198914,278.125000 428.444000,245.401337
	C425.322449,218.197693 413.736481,194.808823 392.998077,175.498932
M149.499969,166.000000
	C142.167984,166.004288 134.831772,166.160843 127.505524,165.957901
	C122.826729,165.828293 120.955971,167.625290 120.963074,172.393753
	C121.051193,231.549637 121.046722,290.705750 120.975403,349.861664
	C120.969933,354.397491 122.817886,356.082458 127.258049,356.032257
	C139.587509,355.892883 151.919693,356.005249 164.250778,355.993011
	C172.821228,355.984528 172.991180,355.826050 172.992691,347.356232
	C173.002258,293.865814 172.998825,240.375412 172.997742,186.884995
	C172.997650,181.885925 172.865067,176.883331 173.012833,171.888855
	C173.140030,167.589142 171.205292,165.872116 166.995895,165.983124
	C161.500916,166.128052 155.998901,166.006744 149.499969,166.000000
z"/>
<path fill="#0A083B" opacity="1.000000" stroke="none"
	d="
M393.248596,175.749359
	C413.736481,194.808823 425.322449,218.197693 428.444000,245.401337
	C432.198914,278.125000 424.098053,307.842072 402.967499,333.539215
	C384.684296,355.773590 361.346252,369.560638 332.909912,374.210175
	C296.156494,380.219635 263.697235,370.752655 235.685867,346.204254
	C215.505798,328.519012 203.368729,306.161072 198.839371,279.924835
	C192.913254,245.597961 200.944199,214.451508 222.543579,187.101105
	C242.184875,162.230164 268.217590,147.740799 299.498383,144.449432
	C334.971069,140.716995 366.771667,150.277466 393.248596,175.749359
M295.702881,324.929443
	C305.682159,327.574585 315.767883,327.881744 325.868134,325.916748
	C362.047394,318.878113 386.203186,284.359619 379.649353,248.207748
	C373.119507,212.188354 339.399994,187.747986 303.184082,193.046875
	C266.528839,198.410034 239.745453,234.969070 246.844757,271.178955
	C252.190536,298.445038 268.652313,316.072540 295.702881,324.929443
z"/>
<path fill="#0A083B" opacity="1.000000" stroke="none"
	d="
M149.999939,166.000000
	C155.998901,166.006744 161.500916,166.128052 166.995895,165.983124
	C171.205292,165.872116 173.140030,167.589142 173.012833,171.888855
	C172.865067,176.883331 172.997650,181.885925 172.997742,186.884995
	C172.998825,240.375412 173.002258,293.865814 172.992691,347.356232
	C172.991180,355.826050 172.821228,355.984528 164.250778,355.993011
	C151.919693,356.005249 139.587509,355.892883 127.258049,356.032257
	C122.817886,356.082458 120.969933,354.397491 120.975403,349.861664
	C121.046722,290.705750 121.051193,231.549637 120.963074,172.393753
	C120.955971,167.625290 122.826729,165.828293 127.505524,165.957901
	C134.831772,166.160843 142.167984,166.004288 149.999939,166.000000
z"/>
<path fill="#000000" opacity="1.000000" stroke="none"
	d="
M295.305145,324.837860
	C268.652313,316.072540 252.190536,298.445038 246.844757,271.178955
	C239.745453,234.969070 266.528839,198.410034 303.184082,193.046875
	C339.399994,187.747986 373.119507,212.188354 379.649353,248.207748
	C386.203186,284.359619 362.047394,318.878113 325.868134,325.916748
	C315.767883,327.881744 305.682159,327.574585 295.305145,324.837860
z"/>
</svg>
