<?xml version="1.0" standalone="no"?>
<!DOCTYPE svg PUBLIC "-//W3C//DTD SVG 20010904//EN"
 "http://www.w3.org/TR/2001/REC-SVG-20010904/DTD/svg10.dtd">
<svg version="1.0" xmlns="http://www.w3.org/2000/svg"
 width="1446.000000pt" height="420.000000pt" viewBox="0 0 1446.000000 420.000000"
 preserveAspectRatio="xMidYMid meet">

<g transform="translate(0.000000,420.000000) scale(0.100000,-0.100000)"
fill="#000000" stroke="none">
<path d="M1970 4090 c-694 -73 -1300 -496 -1600 -1115 -140 -290 -200 -551
-200 -876 0 -326 64 -601 204 -884 292 -588 818 -976 1481 -1092 139 -24 480
-24 620 0 529 92 973 358 1285 772 191 255 315 538 376 867 22 114 30 441 15
565 -112 902 -795 1611 -1687 1748 -122 19 -380 27 -494 15z m514 -389 c368
-76 698 -271 930 -550 278 -333 416 -766 378 -1184 -66 -732 -574 -1307 -1299
-1469 -85 -19 -128 -22 -323 -22 -194 0 -239 3 -325 22 -586 128 -1043 531
-1225 1081 -137 412 -113 827 71 1220 216 461 663 809 1157 900 159 30 153 30
352 26 136 -3 211 -9 284 -24z"/>
<path d="M2375 2985 c-340 -76 -589 -318 -681 -661 -14 -53 -18 -103 -18 -214
1 -127 4 -156 27 -233 93 -306 319 -532 617 -617 96 -28 272 -37 376 -21 256
42 477 189 617 412 323 519 26 1208 -575 1334 -86 18 -282 18 -363 0z m347
-376 c113 -37 225 -126 283 -224 143 -245 69 -551 -169 -707 -145 -94 -347
-107 -501 -32 -174 86 -282 247 -293 438 -9 161 38 286 149 397 141 142 343
191 531 128z"/>
<path d="M1090 2105 l0 -725 195 0 195 0 0 725 0 725 -195 0 -195 0 0 -725z"/>
<path d="M12070 3781 c-129 -42 -199 -159 -170 -281 16 -67 56 -119 116 -151
68 -37 121 -44 186 -25 212 61 250 322 63 432 -49 28 -147 41 -195 25z"/>
<path d="M7060 2980 c-109 -26 -267 -103 -351 -173 -213 -177 -327 -477 -298
-786 11 -124 32 -196 89 -316 107 -223 303 -383 545 -446 181 -48 429 -34 595
32 195 79 357 232 421 400 l19 49 -213 0 -213 0 -51 -49 c-69 -67 -139 -92
-268 -98 -206 -10 -359 59 -451 203 -34 53 -74 158 -74 194 0 20 5 20 648 22
l647 3 -1 150 c-2 174 -19 258 -84 391 -99 206 -284 359 -505 420 -95 27 -347
29 -455 4z m382 -350 c133 -50 221 -165 252 -332 l7 -38 -446 0 -445 0 6 28
c35 143 128 264 253 327 95 48 267 55 373 15z"/>
<path d="M5416 2979 c-264 -34 -453 -158 -527 -347 -20 -48 -23 -76 -24 -178
0 -119 0 -121 38 -196 44 -90 103 -148 204 -201 91 -47 175 -69 433 -112 164
-27 228 -42 270 -63 71 -35 100 -77 100 -145 0 -47 -3 -54 -44 -93 -67 -64
-123 -79 -291 -79 -121 1 -148 4 -196 23 -103 41 -162 102 -194 200 l-17 52
-185 0 -186 0 7 -52 c11 -81 52 -192 97 -263 79 -125 216 -218 395 -267 67
-18 106 -22 264 -22 160 -1 197 2 275 22 292 73 465 263 465 509 0 224 -114
373 -347 454 -32 11 -162 38 -290 59 -251 42 -311 61 -364 116 -31 32 -34 40
-34 99 0 57 3 67 30 96 63 66 197 99 336 80 147 -20 234 -79 270 -183 l18 -53
73 -3 c40 -2 124 0 186 3 127 8 122 2 97 100 -28 107 -70 182 -142 254 -153
153 -430 226 -717 190z"/>
<path d="M10735 2984 c-212 -31 -376 -108 -519 -243 -114 -109 -201 -258 -243
-420 -31 -118 -35 -295 -10 -407 39 -176 133 -342 265 -465 342 -321 866 -316
1202 11 134 130 218 285 255 469 23 113 16 304 -15 411 -106 369 -432 628
-809 644 -53 2 -109 2 -126 0z m208 -379 c188 -49 338 -201 382 -386 42 -179
-10 -357 -144 -490 -100 -99 -218 -149 -356 -149 -287 0 -515 230 -515 520 0
149 44 254 155 366 131 132 308 183 478 139z"/>
<path d="M13260 2978 c-276 -39 -532 -239 -642 -500 -121 -288 -94 -608 73
-858 161 -240 405 -371 694 -371 175 -1 316 35 448 113 26 15 52 28 57 28 6 0
10 -25 10 -55 l0 -55 200 0 200 0 0 835 0 835 -200 0 -200 0 0 -55 c0 -30 -2
-55 -5 -55 -3 0 -38 18 -78 39 -168 92 -365 127 -557 99z m275 -348 c124 -18
262 -98 330 -189 l35 -49 0 -282 0 -282 -72 -72 c-117 -114 -218 -156 -379
-156 -151 0 -258 47 -363 160 -98 107 -142 233 -133 385 6 104 32 186 83 263
95 144 227 217 414 231 8 0 47 -4 85 -9z"/>
<path d="M8300 2110 l0 -830 205 0 205 0 0 188 0 187 150 150 c82 82 153 146
157 141 4 -4 121 -154 259 -334 l250 -327 269 -3 c256 -2 268 -2 253 15 -48
55 -748 946 -748 952 0 4 149 159 330 343 182 185 330 339 330 342 0 3 -114 6
-254 6 l-254 0 -371 -377 -371 -378 0 378 0 377 -205 0 -205 0 0 -830z"/>
<path d="M11930 2110 l0 -830 195 0 195 0 0 830 0 830 -195 0 -195 0 0 -830z"/>
</g>
</svg>
